<svg xmlns="http://www.w3.org/2000/svg" viewBox="0 0 900 220" role="img" aria-labelledby="title desc"><title id="title">Mamba Towing &amp; Recovery logo</title><desc id="desc">A continuous stylized snake forming the word MAMBA.</desc><defs><linearGradient id="body" x1="0" y1="0" x2="0" y2="1"><stop offset="0" stop-color="#34452c"/><stop offset="1" stop-color="#11170f"/></linearGradient><linearGradient id="belly" x1="0" y1="0" x2="1" y2="0"><stop stop-color="#c0ec4a"/><stop offset="1" stop-color="#7fae18"/></linearGradient></defs><g fill="none" stroke-linecap="round" stroke-linejoin="round"><path d="M105 150 C95 115 98 68 132 45 C168 21 208 42 203 78 C199 106 174 119 151 129 C130 138 119 151 130 174 C145 204 191 198 220 164 C251 128 253 78 278 57 C300 39 326 54 322 82 C318 109 289 126 276 151 C263 176 280 193 305 187 C337 179 350 139 367 108 C383 79 410 78 422 101 C435 126 418 155 403 174 C390 191 402 204 425 199 C459 192 475 150 493 116 C507 90 532 86 546 106 C561 128 550 154 538 174 C528 192 541 204 563 199 C596 191 610 143 626 105 C638 78 665 74 679 95 C693 117 683 142 671 158 C660 174 669 190 690 190 C720 190 742 160 754 128 C767 93 794 85 814 103 C835 121 829 151 808 166 C794 176 801 190 820 194 C841 198 860 187 871 172" stroke="#0b0f0a" stroke-width="54"/><path d="M105 150 C95 115 98 68 132 45 C168 21 208 42 203 78 C199 106 174 119 151 129 C130 138 119 151 130 174 C145 204 191 198 220 164 C251 128 253 78 278 57 C300 39 326 54 322 82 C318 109 289 126 276 151 C263 176 280 193 305 187 C337 179 350 139 367 108 C383 79 410 78 422 101 C435 126 418 155 403 174 C390 191 402 204 425 199 C459 192 475 150 493 116 C507 90 532 86 546 106 C561 128 550 154 538 174 C528 192 541 204 563 199 C596 191 610 143 626 105 C638 78 665 74 679 95 C693 117 683 142 671 158 C660 174 669 190 690 190 C720 190 742 160 754 128 C767 93 794 85 814 103 C835 121 829 151 808 166 C794 176 801 190 820 194 C841 198 860 187 871 172" stroke="url(#body)" stroke-width="42"/><path d="M128 154 C119 119 122 78 143 63 C162 50 181 57 181 76 C181 93 160 103 145 111 M145 173 C160 184 188 174 207 150 M278 160 C294 174 310 160 322 139 M405 178 C420 187 440 171 451 150 M541 178 C556 186 574 167 584 146 M670 166 C684 175 701 164 710 145 M802 173 C819 180 837 174 850 163" stroke="url(#belly)" stroke-width="10"/><path d="M104 151 C81 147 57 132 48 112 C40 94 51 77 69 78 C86 79 98 94 95 108 C91 125 78 135 67 139" fill="#182017" stroke="#0b0f0a" stroke-width="10"/><path d="M59 101 L76 96 M63 116 L82 110" stroke="#c0ec4a" stroke-width="5"/><circle cx="70" cy="91" r="5" fill="#c0ec4a" stroke="none"/><path d="M50 122 Q28 131 18 151 Q42 142 60 137" stroke="#c0ec4a" stroke-width="5"/><path d="M68 78 Q80 65 98 63" stroke="#c0ec4a" stroke-width="5"/></g></svg>